<svg width="1920" height="1080" viewBox="0 0 1920 1080" fill="none" xmlns="http://www.w3.org/2000/svg">
<g clip-path="url(#clip0_56_2)">
<rect width="1920" height="1080" fill="#131313"/>
<line x1="60.5" x2="60.5" y2="1080" stroke="#717171" stroke-opacity="0.04"/>
<line x1="120.5" x2="120.5" y2="1080" stroke="#717171" stroke-opacity="0.04"/>
<line x1="180.5" y1="-8" x2="180.5" y2="1072" stroke="#717171" stroke-opacity="0.04"/>
<line x1="240.5" y1="-8" x2="240.5" y2="1072" stroke="#717171" stroke-opacity="0.04"/>
<line x1="300.5" x2="300.5" y2="1080" stroke="#717171" stroke-opacity="0.04"/>
<line x1="360.5" x2="360.5" y2="1080" stroke="#717171" stroke-opacity="0.04"/>
<line x1="420.5" x2="420.5" y2="1080" stroke="#717171" stroke-opacity="0.04"/>
<line x1="480.5" x2="480.5" y2="1080" stroke="#717171" stroke-opacity="0.04"/>
<line x1="540.5" x2="540.5" y2="1080" stroke="#717171" stroke-opacity="0.04"/>
<line x1="600.5" x2="600.5" y2="1080" stroke="#717171" stroke-opacity="0.04"/>
<line x1="660.5" x2="660.5" y2="1080" stroke="#717171" stroke-opacity="0.04"/>
<line x1="720.5" x2="720.5" y2="1080" stroke="#717171" stroke-opacity="0.04"/>
<line x1="780.5" x2="780.5" y2="1080" stroke="#717171" stroke-opacity="0.04"/>
<line x1="840.5" x2="840.5" y2="1080" stroke="#717171" stroke-opacity="0.04"/>
<line x1="900.5" x2="900.5" y2="1080" stroke="#717171" stroke-opacity="0.04"/>
<line x1="960.5" x2="960.5" y2="1080" stroke="#717171" stroke-opacity="0.04"/>
<line x1="1020.5" x2="1020.5" y2="1080" stroke="#717171" stroke-opacity="0.04"/>
<line x1="1080.5" x2="1080.5" y2="1080" stroke="#717171" stroke-opacity="0.04"/>
<line x1="1140.5" x2="1140.5" y2="1080" stroke="#717171" stroke-opacity="0.04"/>
<line x1="1200.5" x2="1200.5" y2="1080" stroke="#717171" stroke-opacity="0.04"/>
<line x1="1260.5" x2="1260.5" y2="1080" stroke="#717171" stroke-opacity="0.04"/>
<line x1="1320.5" x2="1320.5" y2="1080" stroke="#717171" stroke-opacity="0.04"/>
<line x1="1380.5" x2="1380.5" y2="1080" stroke="#717171" stroke-opacity="0.04"/>
<line x1="1440.5" x2="1440.5" y2="1080" stroke="#717171" stroke-opacity="0.04"/>
<line x1="1500.5" x2="1500.5" y2="1080" stroke="#717171" stroke-opacity="0.04"/>
<line x1="1560.5" x2="1560.5" y2="1080" stroke="#717171" stroke-opacity="0.04"/>
<line x1="1620.5" x2="1620.5" y2="1080" stroke="#717171" stroke-opacity="0.04"/>
<line x1="1680.5" x2="1680.5" y2="1080" stroke="#717171" stroke-opacity="0.04"/>
<line x1="1380.5" x2="1380.5" y2="1080" stroke="#717171" stroke-opacity="0.04"/>
<line x1="1440.5" x2="1440.5" y2="1080" stroke="#717171" stroke-opacity="0.04"/>
<line x1="1500.5" x2="1500.5" y2="1080" stroke="#717171" stroke-opacity="0.04"/>
<line x1="1560.5" x2="1560.5" y2="1080" stroke="#717171" stroke-opacity="0.04"/>
<line x1="1620.5" x2="1620.5" y2="1080" stroke="#717171" stroke-opacity="0.04"/>
<line x1="1680.5" x2="1680.5" y2="1080" stroke="#717171" stroke-opacity="0.04"/>
<line x1="1740.5" x2="1740.5" y2="1080" stroke="#717171" stroke-opacity="0.04"/>
<line x1="1800.5" x2="1800.5" y2="1080" stroke="#717171" stroke-opacity="0.04"/>
<line x1="1860.5" x2="1860.5" y2="1080" stroke="#717171" stroke-opacity="0.04"/>
<line x1="-0.000244141" y1="59.5" x2="1920" y2="59.5" stroke="#717171" stroke-opacity="0.04"/>
<line y1="119.5" x2="1920" y2="119.5" stroke="#717171" stroke-opacity="0.04"/>
<line y1="179.5" x2="1920" y2="179.5" stroke="#717171" stroke-opacity="0.04"/>
<line x1="0.000244141" y1="239.5" x2="1920" y2="239.5" stroke="#717171" stroke-opacity="0.04"/>
<line x1="9" y1="299.5" x2="1929" y2="299.5" stroke="#717171" stroke-opacity="0.04"/>
<line x1="9.00024" y1="359.5" x2="1929" y2="359.5" stroke="#717171" stroke-opacity="0.04"/>
<line y1="419.5" x2="1920" y2="419.5" stroke="#717171" stroke-opacity="0.04"/>
<line x1="0.000244141" y1="479.5" x2="1920" y2="479.5" stroke="#717171" stroke-opacity="0.04"/>
<line y1="539.5" x2="1920" y2="539.5" stroke="#717171" stroke-opacity="0.04"/>
<line x1="0.000244141" y1="599.5" x2="1920" y2="599.5" stroke="#717171" stroke-opacity="0.04"/>
<line y1="659.5" x2="1920" y2="659.5" stroke="#717171" stroke-opacity="0.04"/>
<line x1="0.000244141" y1="719.5" x2="1920" y2="719.5" stroke="#717171" stroke-opacity="0.04"/>
<line y1="779.5" x2="1920" y2="779.5" stroke="#717171" stroke-opacity="0.04"/>
<line x1="0.000244141" y1="839.5" x2="1920" y2="839.5" stroke="#717171" stroke-opacity="0.04"/>
<line y1="899.5" x2="1920" y2="899.5" stroke="#717171" stroke-opacity="0.04"/>
<line x1="0.000244141" y1="959.5" x2="1920" y2="959.5" stroke="#717171" stroke-opacity="0.04"/>
<line y1="1019.5" x2="1920" y2="1019.5" stroke="#717171" stroke-opacity="0.04"/>
</g>
<defs>
<clipPath id="clip0_56_2">
<rect width="1920" height="1080" fill="white"/>
</clipPath>
</defs>
</svg>
