<svg width="480" height="291" viewBox="0 0 480 291" fill="none" xmlns="http://www.w3.org/2000/svg">
<g clip-path="url(#clip0_40_2)">
<rect width="480" height="291" fill="#F3F3F3"/>
<line x1="24.5" x2="24.5" y2="291" stroke="#808080" stroke-opacity="0.04"/>
<line x1="48.5" x2="48.5" y2="291" stroke="#808080" stroke-opacity="0.04"/>
<line x1="168.5" x2="168.5" y2="291" stroke="#808080" stroke-opacity="0.04"/>
<line x1="192.5" x2="192.5" y2="291" stroke="#808080" stroke-opacity="0.04"/>
<line x1="216.5" x2="216.5" y2="291" stroke="#808080" stroke-opacity="0.04"/>
<line x1="240.5" x2="240.5" y2="291" stroke="#808080" stroke-opacity="0.04"/>
<line x1="264.5" x2="264.5" y2="291" stroke="#808080" stroke-opacity="0.04"/>
<line x1="288.5" x2="288.5" y2="291" stroke="#808080" stroke-opacity="0.04"/>
<line x1="312.5" y1="-4" x2="312.5" y2="287" stroke="#808080" stroke-opacity="0.04"/>
<line x1="336.5" y1="-4" x2="336.5" y2="287" stroke="#808080" stroke-opacity="0.04"/>
<line x1="360.5" x2="360.5" y2="291" stroke="#808080" stroke-opacity="0.04"/>
<line x1="384.5" x2="384.5" y2="291" stroke="#808080" stroke-opacity="0.04"/>
<line x1="408.5" x2="408.5" y2="291" stroke="#808080" stroke-opacity="0.04"/>
<line x1="432.5" x2="432.5" y2="291" stroke="#808080" stroke-opacity="0.04"/>
<line x1="456.5" x2="456.5" y2="291" stroke="#808080" stroke-opacity="0.04"/>
<line x1="72.5" x2="72.5" y2="291" stroke="#808080" stroke-opacity="0.04"/>
<line x1="96.5" x2="96.5" y2="291" stroke="#808080" stroke-opacity="0.04"/>
<line x1="120.5" x2="120.5" y2="291" stroke="#808080" stroke-opacity="0.04"/>
<line x1="144.5" x2="144.5" y2="291" stroke="#808080" stroke-opacity="0.04"/>
<line y1="23.5" x2="480" y2="23.5" stroke="#808080" stroke-opacity="0.04"/>
<line y1="47.5" x2="480" y2="47.5" stroke="#808080" stroke-opacity="0.04"/>
<line y1="23.5" x2="480" y2="23.5" stroke="#808080" stroke-opacity="0.04"/>
<line x1="4" y1="71.5" x2="484" y2="71.5" stroke="#808080" stroke-opacity="0.04"/>
<line x1="4" y1="47.5" x2="484" y2="47.5" stroke="#808080" stroke-opacity="0.04"/>
<line y1="95.5" x2="480" y2="95.5" stroke="#808080" stroke-opacity="0.04"/>
<line y1="71.5" x2="480" y2="71.5" stroke="#808080" stroke-opacity="0.04"/>
<line x1="-5" y1="119.5" x2="475" y2="119.5" stroke="#808080" stroke-opacity="0.04"/>
<line x1="-5" y1="95.5" x2="475" y2="95.5" stroke="#808080" stroke-opacity="0.04"/>
<line y1="143.5" x2="480" y2="143.5" stroke="#808080" stroke-opacity="0.04"/>
<line y1="119.5" x2="480" y2="119.5" stroke="#808080" stroke-opacity="0.04"/>
<line x1="-5" y1="167.5" x2="475" y2="167.5" stroke="#808080" stroke-opacity="0.04"/>
<line y1="143.5" x2="480" y2="143.5" stroke="#808080" stroke-opacity="0.04"/>
<line x1="-11" y1="191.5" x2="469" y2="191.5" stroke="#808080" stroke-opacity="0.04"/>
<line y1="167.5" x2="480" y2="167.5" stroke="#808080" stroke-opacity="0.04"/>
<line y1="215.5" x2="480" y2="215.5" stroke="#808080" stroke-opacity="0.04"/>
<line y1="191.5" x2="480" y2="191.5" stroke="#808080" stroke-opacity="0.04"/>
<line y1="239.5" x2="480" y2="239.5" stroke="#808080" stroke-opacity="0.04"/>
<line y1="215.5" x2="480" y2="215.5" stroke="#808080" stroke-opacity="0.04"/>
<line y1="263.5" x2="480" y2="263.5" stroke="#808080" stroke-opacity="0.04"/>
<line y1="239.5" x2="480" y2="239.5" stroke="#808080" stroke-opacity="0.04"/>
</g>
<defs>
<clipPath id="clip0_40_2">
<rect width="480" height="291" fill="white"/>
</clipPath>
</defs>
</svg>
